<svg xmlns="http://www.w3.org/2000/svg" xmlns:xlink="http://www.w3.org/1999/xlink" width="65.754" height="57.082" viewBox="0 0 65.754 57.082">
  <defs>
    <filter id="Path_693" x="0" y="0" width="65.754" height="57.082" filterUnits="userSpaceOnUse">
      <feOffset dy="3" input="SourceAlpha"/>
      <feGaussianBlur stdDeviation="3" result="blur"/>
      <feFlood flood-opacity="0.161"/>
      <feComposite operator="in" in2="blur"/>
      <feComposite in="SourceGraphic"/>
    </filter>
    <filter id="Ellipse_26" x="13.788" y="12.564" width="37.925" height="37.925" filterUnits="userSpaceOnUse">
      <feOffset dy="3" input="SourceAlpha"/>
      <feGaussianBlur stdDeviation="3" result="blur-2"/>
      <feFlood flood-opacity="0.161"/>
      <feComposite operator="in" in2="blur-2"/>
      <feComposite in="SourceGraphic"/>
    </filter>
  </defs>
  <g id="Group_4146" data-name="Group 4146" transform="translate(-145 -97.776)">
    <g transform="matrix(1, 0, 0, 1, 145, 97.78)" filter="url(#Path_693)">
      <path id="Path_693-2" data-name="Path 693" d="M1568.691,824.586h-18.62c-.949,0-4.307,7.243-5.255,7.243h-4.337a3.977,3.977,0,0,0-3.979,3.979V857.69a3.977,3.977,0,0,0,3.979,3.979h37.8a3.978,3.978,0,0,0,3.979-3.979V835.807a3.978,3.978,0,0,0-3.979-3.979h-4.337S1569.64,824.586,1568.691,824.586Z" transform="translate(-1526.5 -817.59)" fill="rgba(0,0,0,0)" stroke="#fff" stroke-linecap="round" stroke-linejoin="round" stroke-miterlimit="10" stroke-width="2"/>
    </g>
    <g transform="matrix(1, 0, 0, 1, 145, 97.78)" filter="url(#Ellipse_26)">
      <circle id="Ellipse_26-2" data-name="Ellipse 26" cx="8.962" cy="8.962" r="8.962" transform="translate(23.79 19.56)" fill="rgba(0,0,0,0)" stroke="#fff" stroke-linecap="round" stroke-linejoin="round" stroke-miterlimit="10" stroke-width="2"/>
    </g>
  </g>
</svg>
