<svg xmlns="http://www.w3.org/2000/svg" xmlns:xlink="http://www.w3.org/1999/xlink" width="694" height="694" viewBox="0 0 694 694">
  <defs>
    <clipPath id="clip-path">
      <rect id="Rectangle_492" data-name="Rectangle 492" width="114.442" height="69.697" fill="none"/>
    </clipPath>
    <clipPath id="clip-path-2">
      <rect id="Rectangle_493" data-name="Rectangle 493" width="32.569" height="130.921" fill="none"/>
    </clipPath>
    <clipPath id="clip-path-3">
      <rect id="Rectangle_494" data-name="Rectangle 494" width="111.996" height="77.535" fill="none"/>
    </clipPath>
    <clipPath id="clip-path-4">
      <rect id="Rectangle_495" data-name="Rectangle 495" width="32.933" height="130.559" fill="none"/>
    </clipPath>
    <clipPath id="clip-path-5">
      <rect id="Rectangle_496" data-name="Rectangle 496" width="113.86" height="69.089" fill="none"/>
    </clipPath>
  </defs>
  <g id="Selfie_result_face_circle" data-name="Selfie result_face circle" transform="translate(535 679) rotate(180)">
    <circle id="Ellipse_53" data-name="Ellipse 53" cx="197" cy="197" r="197" transform="translate(-9 135)" fill="#fff" opacity="0.113"/>
    <g id="Group_4241" data-name="Group 4241" transform="translate(30 173)">
      <g id="Group_4265" data-name="Group 4265" transform="translate(0 0)">
        <path id="Path_29429" data-name="Path 29429" d="M254.616,210.263A123.412,123.412,0,0,1,157.583,270.4l.509,16.459a139.867,139.867,0,0,0,111.089-68.885Z" transform="translate(8.369 11.167)" fill="#ffd28b"/>
        <g id="Group_4227" data-name="Group 4227" transform="translate(157.828 18.574)" opacity="0.5">
          <g id="Group_4226" data-name="Group 4226">
            <g id="Group_4225" data-name="Group 4225" clip-path="url(#clip-path)">
              <path id="Path_29430" data-name="Path 29430" d="M150.378,34.1a123.3,123.3,0,0,1,100.009,53.23l13.924-8.8A139.74,139.74,0,0,0,149.869,17.637Z" transform="translate(-149.869 -17.637)" fill="#ffd28b"/>
            </g>
          </g>
        </g>
        <g id="Group_4230" data-name="Group 4230" transform="translate(264.131 88.648)" opacity="0.7">
          <g id="Group_4229" data-name="Group 4229">
            <g id="Group_4228" data-name="Group 4228" clip-path="url(#clip-path-2)">
              <path id="Path_29431" data-name="Path 29431" d="M269.358,215.1A140.106,140.106,0,0,0,264.74,84.178l-13.928,8.807a123.636,123.636,0,0,1,3.989,114.41Z" transform="translate(-250.811 -84.178)" fill="#ffd28b"/>
            </g>
          </g>
        </g>
        <g id="Group_4233" data-name="Group 4233" transform="translate(35.488 18.909)" opacity="0.3">
          <g id="Group_4232" data-name="Group 4232">
            <g id="Group_4231" data-name="Group 4231" clip-path="url(#clip-path-3)">
              <path id="Path_29432" data-name="Path 29432" d="M48.264,95.489A123.432,123.432,0,0,1,145.7,34.414l-.509-16.459A139.889,139.889,0,0,0,33.7,87.78Z" transform="translate(-33.699 -17.955)" fill="#ffd28b"/>
            </g>
          </g>
        </g>
        <g id="Group_4236" data-name="Group 4236" transform="translate(16.899 98.348)" opacity="0.2">
          <g id="Group_4235" data-name="Group 4235">
            <g id="Group_4234" data-name="Group 4234" clip-path="url(#clip-path-4)">
              <path id="Path_29433" data-name="Path 29433" d="M48.98,215.146A123.611,123.611,0,0,1,44.159,101.1L29.591,93.388a140.083,140.083,0,0,0,5.47,130.559Z" transform="translate(-16.047 -93.388)" fill="#ffd28b"/>
            </g>
          </g>
        </g>
        <g id="Group_4239" data-name="Group 4239" transform="translate(41.749 229.257)" opacity="0.1">
          <g id="Group_4238" data-name="Group 4238">
            <g id="Group_4237" data-name="Group 4237" clip-path="url(#clip-path-5)">
              <path id="Path_29434" data-name="Path 29434" d="M152.994,270.32A123.285,123.285,0,0,1,53.568,217.7l-13.925,8.8A139.729,139.729,0,0,0,153.5,286.785Z" transform="translate(-39.644 -217.696)" fill="#ffd28b"/>
            </g>
          </g>
        </g>
        <path id="Path_29435" data-name="Path 29435" d="M3.883,151.19H12.27c0-.175-.006-.348-.006-.522s.005-.348.006-.522H3.883Z" transform="translate(0.206 7.974)" fill="#fff"/>
        <path id="Path_29436" data-name="Path 29436" d="M3.955,146.095l8.383.293c.011-.349.026-.7.04-1.045l-8.386-.293Z" transform="translate(0.21 7.703)" fill="#fff"/>
        <path id="Path_29437" data-name="Path 29437" d="M4.2,141.006l8.367.586c.022-.348.041-.7.066-1.044l-8.361-.584Z" transform="translate(0.223 7.433)" fill="#fff"/>
        <path id="Path_29438" data-name="Path 29438" d="M17.717,189.222c-.1-.335-.2-.668-.292-1l-8.024,2.3.288,1Z" transform="translate(0.499 9.996)" fill="#fff"/>
        <path id="Path_29439" data-name="Path 29439" d="M12.377,156.006c-.013-.349-.028-.7-.04-1.045l-8.383.293.037,1.045Z" transform="translate(0.21 8.23)" fill="#fff"/>
        <path id="Path_29440" data-name="Path 29440" d="M21.229,219.861l7.381-3.925c-.165-.306-.325-.616-.489-.925l-7.383,3.926Z" transform="translate(1.101 11.419)" fill="#fff"/>
        <path id="Path_29441" data-name="Path 29441" d="M12.637,160.817c-.025-.348-.044-.7-.066-1.044l-8.367.585.074,1.043Z" transform="translate(0.223 8.485)" fill="#fff"/>
        <path id="Path_29442" data-name="Path 29442" d="M16.458,184.572c-.085-.337-.165-.677-.247-1.015L8.1,185.579l.253,1.014Z" transform="translate(0.43 9.748)" fill="#fff"/>
        <path id="Path_29443" data-name="Path 29443" d="M8.1,115.856l8.111,2.022c.082-.338.162-.678.247-1.015l-8.106-2.021Z" transform="translate(0.43 6.099)" fill="#fff"/>
        <path id="Path_29444" data-name="Path 29444" d="M7.187,181.617l8.179-1.739c-.074-.34-.152-.679-.222-1.022L6.97,180.595Z" transform="translate(0.37 9.499)" fill="#fff"/>
        <path id="Path_29445" data-name="Path 29445" d="M6.97,120.826l8.174,1.738c.071-.341.148-.681.222-1.022L7.187,119.8Z" transform="translate(0.37 6.362)" fill="#fff"/>
        <path id="Path_29446" data-name="Path 29446" d="M174.382,15.2l1.451-8.23L174.8,6.787l-1.452,8.241c.343.059.69.111,1.032.172" transform="translate(9.206 0.36)" fill="#fff"/>
        <path id="Path_29447" data-name="Path 29447" d="M169.622,14.444l1.165-8.292-1.034-.145L168.588,14.3q.518.071,1.034.145" transform="translate(8.953 0.319)" fill="#fff"/>
        <path id="Path_29448" data-name="Path 29448" d="M164.842,13.844l.875-8.331-1.038-.11L163.8,13.73c.348.035.692.077,1.038.114" transform="translate(8.699 0.287)" fill="#fff"/>
        <path id="Path_29449" data-name="Path 29449" d="M9.4,110.93l8.024,2.3c.095-.336.2-.669.292-1l-8.028-2.3Z" transform="translate(0.499 5.838)" fill="#fff"/>
        <path id="Path_29450" data-name="Path 29450" d="M179.115,16.382l2.757-12.974-1.038-.221-2.757,12.97c.348.072.692.152,1.038.225" transform="translate(9.457 0.169)" fill="#fff"/>
        <path id="Path_29451" data-name="Path 29451" d="M183.8,17.23l2.021-8.1-1.014-.254-2.022,8.111c.338.082.678.162,1.015.247" transform="translate(9.707 0.471)" fill="#fff"/>
        <path id="Path_29452" data-name="Path 29452" d="M20.738,82.59l7.383,3.926c.163-.308.323-.618.489-.925l-7.381-3.925Z" transform="translate(1.101 4.337)" fill="#fff"/>
        <path id="Path_29453" data-name="Path 29453" d="M37.718,57.224l6.423,5.39c.223-.269.45-.533.675-.8L38.39,56.423Z" transform="translate(2.003 2.996)" fill="#fff"/>
        <path id="Path_29454" data-name="Path 29454" d="M149.895,13.284c.178,0,.354.005.531.006V0h-1.062V13.29c.177,0,.354-.006.531-.006" transform="translate(7.932)" fill="#fff"/>
        <path id="Path_29455" data-name="Path 29455" d="M160.045,13.409l.584-8.36-1.044-.074L159,13.344c.348.022.7.04,1.044.065" transform="translate(8.444 0.264)" fill="#fff"/>
        <path id="Path_29456" data-name="Path 29456" d="M155.235,13.15l.293-8.386-1.045-.037-.293,8.383c.35.012.7.026,1.045.04" transform="translate(8.189 0.251)" fill="#fff"/>
        <path id="Path_29457" data-name="Path 29457" d="M140.818,13.344l-.586-8.367-1.043.073.584,8.36c.348-.024.7-.043,1.044-.065" transform="translate(7.392 0.264)" fill="#fff"/>
        <path id="Path_29458" data-name="Path 29458" d="M85.744,28.894l-3.926-7.383L80.895,22l3.924,7.38c.306-.164.617-.325.925-.488" transform="translate(4.296 1.142)" fill="#fff"/>
        <path id="Path_29459" data-name="Path 29459" d="M77.41,33.675l-4.437-7.1-.887.555,4.437,7.1c.295-.186.591-.37.887-.554" transform="translate(3.828 1.411)" fill="#fff"/>
        <path id="Path_29460" data-name="Path 29460" d="M81.53,31.2l-4.18-7.239-.9.523,4.183,7.244c.3-.176.6-.355.9-.529" transform="translate(4.06 1.273)" fill="#fff"/>
        <path id="Path_29461" data-name="Path 29461" d="M94.5,24.93,89.108,12.819l-.971.432,5.39,12.1c.322-.145.649-.282.973-.425" transform="translate(4.681 0.681)" fill="#fff"/>
        <path id="Path_29462" data-name="Path 29462" d="M90.028,26.719l-3.662-7.506-.939.458,3.664,7.513c.313-.155.622-.313.937-.465" transform="translate(4.537 1.02)" fill="#fff"/>
        <path id="Path_29463" data-name="Path 29463" d="M58.206,48.055l-5.614-6.234-.776.7,5.609,6.229c.257-.234.521-.461.781-.694" transform="translate(2.752 2.221)" fill="#fff"/>
        <path id="Path_29464" data-name="Path 29464" d="M61.841,44.914l-5.39-6.423-.8.672,5.392,6.426c.266-.225.531-.452.8-.675" transform="translate(2.955 2.044)" fill="#fff"/>
        <path id="Path_29465" data-name="Path 29465" d="M98.819,22.841,95.69,15.1l-.969.393,3.13,7.745c.322-.132.643-.265.968-.395" transform="translate(5.03 0.802)" fill="#fff"/>
        <path id="Path_29466" data-name="Path 29466" d="M65.584,41.9,60.424,35.3l-.825.643,5.158,6.6c.274-.215.552-.425.827-.639" transform="translate(3.165 1.875)" fill="#fff"/>
        <path id="Path_29467" data-name="Path 29467" d="M69.583,39.219,61.774,28.473l-.857.624,7.808,10.747c.285-.209.571-.418.858-.626" transform="translate(3.235 1.512)" fill="#fff"/>
        <path id="Path_29468" data-name="Path 29468" d="M73.371,36.276l-4.681-6.94-.867.584,4.682,6.941q.431-.294.866-.586" transform="translate(3.602 1.558)" fill="#fff"/>
        <path id="Path_29469" data-name="Path 29469" d="M131.26,14.3,130.1,6.008l-1.035.145,1.166,8.292c.344-.049.689-.1,1.034-.145" transform="translate(6.854 0.319)" fill="#fff"/>
        <path id="Path_29470" data-name="Path 29470" d="M136.031,13.73,135.155,5.4l-1.038.11.875,8.331c.346-.037.692-.079,1.038-.114" transform="translate(7.123 0.287)" fill="#fff"/>
        <path id="Path_29471" data-name="Path 29471" d="M126.513,15.028,125.06,6.787l-1.03.182,1.451,8.23c.342-.062.689-.113,1.032-.172" transform="translate(6.587 0.36)" fill="#fff"/>
        <path id="Path_29472" data-name="Path 29472" d="M38.39,245.171l6.426-5.393c-.224-.265-.452-.53-.675-.8l-6.423,5.389Z" transform="translate(2.003 12.692)" fill="#fff"/>
        <path id="Path_29473" data-name="Path 29473" d="M145.616,13.11l-.293-8.383-1.046.036.294,8.387c.348-.014.7-.029,1.045-.04" transform="translate(7.662 0.251)" fill="#fff"/>
        <path id="Path_29474" data-name="Path 29474" d="M103.311,21.136l-2.856-7.846-.984.358,2.854,7.84c.328-.12.657-.235.986-.353" transform="translate(5.283 0.706)" fill="#fff"/>
        <path id="Path_29475" data-name="Path 29475" d="M188.45,18.49l2.3-8.028-1.007-.287-2.3,8.023c.336.095.67.2,1,.293" transform="translate(9.955 0.54)" fill="#fff"/>
        <path id="Path_29476" data-name="Path 29476" d="M112.459,18.2l-2.3-8.024-1.006.289,2.3,8.028c.335-.1.669-.2,1-.293" transform="translate(5.797 0.54)" fill="#fff"/>
        <path id="Path_29477" data-name="Path 29477" d="M107.86,19.591l-2.581-7.944-.994.323,2.582,7.943q.494-.163.993-.322" transform="translate(5.538 0.619)" fill="#fff"/>
        <path id="Path_29478" data-name="Path 29478" d="M117.106,16.982l-2.022-8.11-1.014.253,2.021,8.1c.337-.084.677-.164,1.015-.247" transform="translate(6.058 0.471)" fill="#fff"/>
        <path id="Path_29479" data-name="Path 29479" d="M121.851,16.157l-2.757-12.97-1.038.221,2.758,12.974c.345-.074.69-.154,1.037-.225" transform="translate(6.27 0.169)" fill="#fff"/>
        <path id="Path_29480" data-name="Path 29480" d="M197.606,21.489l2.854-7.841-.984-.358-2.856,7.847c.329.117.658.233.986.353" transform="translate(10.442 0.706)" fill="#fff"/>
        <path id="Path_29481" data-name="Path 29481" d="M295.957,160.359l-8.366-.585c-.023.348-.041.7-.066,1.044l8.361.584Z" transform="translate(15.27 8.485)" fill="#fff"/>
        <path id="Path_29482" data-name="Path 29482" d="M296.208,155.255l-8.384-.293c-.01.349-.026.7-.039,1.045l8.386.293Z" transform="translate(15.284 8.23)" fill="#fff"/>
        <path id="Path_29483" data-name="Path 29483" d="M296.277,150.145h-8.388c0,.175.007.348.007.522s-.006.349-.007.522h8.388Z" transform="translate(15.289 7.974)" fill="#fff"/>
        <path id="Path_29484" data-name="Path 29484" d="M290.755,190.519l-8.024-2.3c-.095.336-.2.669-.292,1l8.028,2.3Z" transform="translate(15 9.996)" fill="#fff"/>
        <path id="Path_29485" data-name="Path 29485" d="M292.06,185.579l-8.11-2.022c-.083.338-.162.678-.249,1.015l8.106,2.021Z" transform="translate(15.067 9.748)" fill="#fff"/>
        <path id="Path_29486" data-name="Path 29486" d="M293.191,180.6l-8.175-1.738c-.071.341-.148.681-.222,1.022l8.18,1.739Z" transform="translate(15.125 9.499)" fill="#fff"/>
        <path id="Path_29487" data-name="Path 29487" d="M286.635,132.034l8.293-1.166-.146-1.035L286.49,131c.05.345.1.69.145,1.036" transform="translate(15.215 6.895)" fill="#fff"/>
        <path id="Path_29488" data-name="Path 29488" d="M278.079,99.591l7.741-3.128-.392-.969-7.745,3.13c.132.322.265.643.395.967" transform="translate(14.747 5.071)" fill="#fff"/>
        <path id="Path_29489" data-name="Path 29489" d="M279.788,104.083l7.845-2.855-.358-.983-7.84,2.854c.12.326.235.656.354.984" transform="translate(14.84 5.324)" fill="#fff"/>
        <path id="Path_29490" data-name="Path 29490" d="M285.907,127.284l8.24-1.453-.181-1.029-8.23,1.451c.061.342.113.688.172,1.031" transform="translate(15.175 6.628)" fill="#fff"/>
        <path id="Path_29491" data-name="Path 29491" d="M281.339,108.718l12.607-4.1-.33-1.01-12.606,4.1q.166.5.329,1.01" transform="translate(14.924 5.503)" fill="#fff"/>
        <path id="Path_29492" data-name="Path 29492" d="M296.171,145.05l-8.386.293c.013.349.028.7.039,1.045l8.384-.293Z" transform="translate(15.284 7.703)" fill="#fff"/>
        <path id="Path_29493" data-name="Path 29493" d="M287.525,140.547c.024.346.043.7.065,1.044l8.367-.586-.073-1.043Z" transform="translate(15.27 7.433)" fill="#fff"/>
        <path id="Path_29494" data-name="Path 29494" d="M279.4,218.937l-7.384-3.927c-.163.309-.323.619-.489.926l7.381,3.925Z" transform="translate(14.42 11.419)" fill="#fff"/>
        <path id="Path_29495" data-name="Path 29495" d="M276.209,95.164l7.632-3.4-.425-.955-7.627,3.4c.142.318.278.639.42.958" transform="translate(14.646 4.823)" fill="#fff"/>
        <path id="Path_29496" data-name="Path 29496" d="M283.7,116.864c.085.337.164.677.247,1.015l8.111-2.022-.254-1.014Z" transform="translate(15.067 6.099)" fill="#fff"/>
        <path id="Path_29497" data-name="Path 29497" d="M287.206,136.837l13.2-1.388-.111-1.056-13.207,1.389c.037.352.08.7.115,1.055" transform="translate(15.247 7.137)" fill="#fff"/>
        <path id="Path_29498" data-name="Path 29498" d="M292.972,119.8l-8.179,1.739c.074.34.152.679.222,1.021l8.175-1.738Z" transform="translate(15.125 6.362)" fill="#fff"/>
        <path id="Path_29499" data-name="Path 29499" d="M261.705,56.423l-6.426,5.392c.225.266.452.531.675.8l6.424-5.389Z" transform="translate(13.557 2.996)" fill="#fff"/>
        <path id="Path_29500" data-name="Path 29500" d="M193.051,19.913l2.581-7.943-.993-.323-2.581,7.944q.5.16.993.322" transform="translate(10.2 0.619)" fill="#fff"/>
        <path id="Path_29501" data-name="Path 29501" d="M278.905,81.666l-7.381,3.925c.164.306.325.616.489.925L279.4,82.59Z" transform="translate(14.42 4.337)" fill="#fff"/>
        <path id="Path_29502" data-name="Path 29502" d="M282.44,112.227c.1.335.2.668.291,1l8.025-2.3-.288-1Z" transform="translate(15 5.838)" fill="#fff"/>
        <path id="Path_29503" data-name="Path 29503" d="M262.378,244.37l-6.425-5.39c-.223.267-.449.533-.675.8l6.426,5.392Z" transform="translate(13.557 12.692)" fill="#fff"/>
        <path id="Path_29504" data-name="Path 29504" d="M215.163,29.382,219.088,22l-.924-.491-3.926,7.384c.308.162.618.322.925.488" transform="translate(11.378 1.142)" fill="#fff"/>
        <path id="Path_29505" data-name="Path 29505" d="M223.484,34.228l4.435-7.1-.886-.555-4.437,7.1.888.553" transform="translate(11.822 1.411)" fill="#fff"/>
        <path id="Path_29506" data-name="Path 29506" d="M219.364,31.734l4.183-7.245-.906-.522-4.179,7.239c.3.173.6.353.9.529" transform="translate(11.602 1.273)" fill="#fff"/>
        <path id="Path_29507" data-name="Path 29507" d="M227.512,36.862l4.682-6.941-.866-.584-4.681,6.94c.289.194.578.39.865.586" transform="translate(12.037 1.558)" fill="#fff"/>
        <path id="Path_29508" data-name="Path 29508" d="M231.449,39.845,239.258,29.1l-.859-.623-7.807,10.745q.43.311.857.627" transform="translate(12.246 1.512)" fill="#fff"/>
        <path id="Path_29509" data-name="Path 29509" d="M235.281,42.542l5.157-6.6-.822-.643-5.16,6.606c.275.213.552.423.826.639" transform="translate(12.451 1.875)" fill="#fff"/>
        <path id="Path_29510" data-name="Path 29510" d="M202.093,23.236l3.13-7.746-.969-.392-3.129,7.742c.324.13.645.263.968.395" transform="translate(10.681 0.802)" fill="#fff"/>
        <path id="Path_29511" data-name="Path 29511" d="M54.679,51.315l-5.825-6.032-.752.726,5.829,6.036c.25-.242.5-.489.748-.73" transform="translate(2.555 2.405)" fill="#fff"/>
        <path id="Path_29512" data-name="Path 29512" d="M210.878,27.184l3.664-7.513-.939-.458-3.662,7.506c.315.153.625.312.937.465" transform="translate(11.149 1.02)" fill="#fff"/>
        <path id="Path_29513" data-name="Path 29513" d="M206.531,25.355l5.39-12.105-.971-.432L205.558,24.93c.324.142.651.28.973.425" transform="translate(10.917 0.681)" fill="#fff"/>
        <path id="Path_29514" data-name="Path 29514" d="M267.22,78.182l7.1-4.436-.553-.887-7.1,4.436q.278.442.553.887" transform="translate(14.162 3.869)" fill="#fff"/>
        <path id="Path_29515" data-name="Path 29515" d="M261.859,70.2l6.779-4.925-.614-.846-6.781,4.926c.205.281.412.562.616.845" transform="translate(13.874 3.422)" fill="#fff"/>
        <path id="Path_29516" data-name="Path 29516" d="M258.972,66.357l6.605-5.16-.643-.825-6.6,5.158c.215.274.425.552.639.827" transform="translate(13.719 3.206)" fill="#fff"/>
        <path id="Path_29517" data-name="Path 29517" d="M239.006,45.588l5.392-6.426-.8-.671-5.39,6.423c.269.222.533.45.8.674" transform="translate(12.651 2.044)" fill="#fff"/>
        <path id="Path_29518" data-name="Path 29518" d="M274.193,90.8l7.505-3.661-.459-.94-7.512,3.665c.154.313.313.622.466.936" transform="translate(14.537 4.578)" fill="#fff"/>
        <path id="Path_29519" data-name="Path 29519" d="M269.7,82.434l11.484-6.63-.531-.919-11.49,6.635c.178.305.361.608.537.915" transform="translate(14.295 3.977)" fill="#fff"/>
        <path id="Path_29520" data-name="Path 29520" d="M264.614,74.144l6.94-4.681-.585-.868-6.942,4.683q.3.431.587.866" transform="translate(14.022 3.643)" fill="#fff"/>
        <path id="Path_29521" data-name="Path 29521" d="M252.81,59.15l9.877-8.894-.71-.789L252.1,58.356c.238.262.468.531.7.794" transform="translate(13.389 2.627)" fill="#fff"/>
        <path id="Path_29522" data-name="Path 29522" d="M242.635,48.748l5.608-6.229-.777-.7-5.613,6.234c.26.233.524.46.782.694" transform="translate(12.844 2.221)" fill="#fff"/>
        <path id="Path_29523" data-name="Path 29523" d="M246.139,52.045l5.829-6.036-.753-.726-5.825,6.031c.252.241.5.488.749.731" transform="translate(13.032 2.405)" fill="#fff"/>
        <path id="Path_29524" data-name="Path 29524" d="M249.536,55.451l6.032-5.826-.727-.752-6.035,5.83c.242.25.489.5.73.748" transform="translate(13.213 2.596)" fill="#fff"/>
        <path id="Path_29525" data-name="Path 29525" d="M209.941,274.965l3.662,7.506.939-.458-3.664-7.513c-.313.155-.622.314-.937.465" transform="translate(11.149 14.578)" fill="#fff"/>
        <path id="Path_29526" data-name="Path 29526" d="M182.784,284.722l2.022,8.111,1.014-.254-2.021-8.1c-.337.085-.677.164-1.015.248" transform="translate(9.707 15.108)" fill="#fff"/>
        <path id="Path_29527" data-name="Path 29527" d="M51.273,54.7l-6.036-5.829-.726.752,6.032,5.825c.241-.252.487-.5.73-.748" transform="translate(2.364 2.596)" fill="#fff"/>
        <path id="Path_29528" data-name="Path 29528" d="M192.058,282.108l2.581,7.944.994-.323-2.582-7.944q-.494.164-.993.323" transform="translate(10.2 14.965)" fill="#fff"/>
        <path id="Path_29529" data-name="Path 29529" d="M178.077,285.791l2.757,12.97,1.038-.221-2.758-12.975c-.345.075-.69.154-1.037.226" transform="translate(9.457 15.166)" fill="#fff"/>
        <path id="Path_29530" data-name="Path 29530" d="M168.588,287.408l1.165,8.292,1.035-.145-1.166-8.292q-.517.074-1.034.145" transform="translate(8.953 15.256)" fill="#fff"/>
        <path id="Path_29531" data-name="Path 29531" d="M173.35,286.68l1.453,8.24,1.03-.182-1.451-8.229c-.342.061-.689.113-1.032.172" transform="translate(9.206 15.216)" fill="#fff"/>
        <path id="Path_29532" data-name="Path 29532" d="M214.238,272.786l3.926,7.383.923-.491-3.924-7.38c-.308.164-.617.324-.925.488" transform="translate(11.378 14.461)" fill="#fff"/>
        <path id="Path_29533" data-name="Path 29533" d="M196.62,280.56l2.856,7.846.984-.358-2.854-7.841c-.328.12-.657.236-.986.354" transform="translate(10.442 14.881)" fill="#fff"/>
        <path id="Path_29534" data-name="Path 29534" d="M218.464,270.47l4.179,7.239.9-.523-4.183-7.244c-.3.176-.6.355-.9.529" transform="translate(11.602 14.336)" fill="#fff"/>
        <path id="Path_29535" data-name="Path 29535" d="M201.126,278.851l3.128,7.742.969-.393-3.13-7.745c-.322.132-.643.265-.967.395" transform="translate(10.681 14.788)" fill="#fff"/>
        <path id="Path_29536" data-name="Path 29536" d="M205.559,276.984l5.392,12.111.971-.432-5.39-12.1c-.322.144-.649.282-.973.425" transform="translate(10.917 14.687)" fill="#fff"/>
        <path id="Path_29537" data-name="Path 29537" d="M120.814,285.565l-2.758,12.975,1.038.221,2.757-12.97c-.348-.073-.692-.152-1.037-.226" transform="translate(6.27 15.166)" fill="#fff"/>
        <path id="Path_29538" data-name="Path 29538" d="M134.991,287.864l-.875,8.332,1.038.108.875-8.327c-.346-.035-.692-.076-1.038-.114" transform="translate(7.123 15.288)" fill="#fff"/>
        <path id="Path_29539" data-name="Path 29539" d="M139.774,288.3l-.584,8.36,1.044.074.584-8.367c-.347-.022-.7-.041-1.044-.066" transform="translate(7.392 15.311)" fill="#fff"/>
        <path id="Path_29540" data-name="Path 29540" d="M130.226,287.263l-1.165,8.292,1.034.145,1.165-8.292q-.518-.071-1.034-.145" transform="translate(6.854 15.256)" fill="#fff"/>
        <path id="Path_29541" data-name="Path 29541" d="M222.6,267.993l4.437,7.1.887-.555-4.436-7.1c-.3.186-.592.37-.888.554" transform="translate(11.822 14.203)" fill="#fff"/>
        <path id="Path_29542" data-name="Path 29542" d="M125.48,286.508l-1.451,8.229,1.031.182,1.452-8.24c-.343-.059-.69-.111-1.032-.172" transform="translate(6.587 15.216)" fill="#fff"/>
        <path id="Path_29543" data-name="Path 29543" d="M154.189,288.6l.293,8.383,1.046-.036-.294-8.387c-.348.014-.7.029-1.045.04" transform="translate(8.189 15.325)" fill="#fff"/>
        <path id="Path_29544" data-name="Path 29544" d="M159,288.364l.586,8.367,1.043-.074-.584-8.36c-.348.025-.7.044-1.044.066" transform="translate(8.444 15.311)" fill="#fff"/>
        <path id="Path_29545" data-name="Path 29545" d="M144.571,288.557l-.293,8.387,1.045.037.293-8.384c-.35-.011-.7-.026-1.045-.04" transform="translate(7.662 15.325)" fill="#fff"/>
        <path id="Path_29546" data-name="Path 29546" d="M163.8,287.978l.875,8.327,1.038-.11-.875-8.331c-.346.037-.691.079-1.038.114" transform="translate(8.699 15.288)" fill="#fff"/>
        <path id="Path_29547" data-name="Path 29547" d="M149.895,288.669c-.177,0-.354-.006-.531-.006v13.289h1.062V288.663c-.177,0-.353.006-.531.006" transform="translate(7.932 15.33)" fill="#fff"/>
        <path id="Path_29548" data-name="Path 29548" d="M286.49,170.4l8.292,1.165.146-1.035-8.293-1.166c-.047.346-.1.691-.145,1.036" transform="translate(15.215 8.994)" fill="#fff"/>
        <path id="Path_29549" data-name="Path 29549" d="M277.683,202.866l7.746,3.13.392-.969-7.741-3.128c-.13.323-.263.644-.4.967" transform="translate(14.747 10.722)" fill="#fff"/>
        <path id="Path_29550" data-name="Path 29550" d="M226.646,265.385l4.681,6.94.867-.583-4.683-6.942q-.431.294-.865.585" transform="translate(12.037 14.063)" fill="#fff"/>
        <path id="Path_29551" data-name="Path 29551" d="M269.164,220.144l11.49,6.635.531-.919-11.484-6.63c-.176.306-.359.61-.537.915" transform="translate(14.295 11.643)" fill="#fff"/>
        <path id="Path_29552" data-name="Path 29552" d="M273.728,211.651l7.512,3.664.458-.939-7.505-3.661c-.152.314-.311.623-.464.936" transform="translate(14.537 11.191)" fill="#fff"/>
        <path id="Path_29553" data-name="Path 29553" d="M279.435,198.377l7.84,2.854.358-.983-7.846-2.855c-.118.328-.233.656-.353.984" transform="translate(14.84 10.483)" fill="#fff"/>
        <path id="Path_29554" data-name="Path 29554" d="M281.011,193.833l12.606,4.1.329-1.01-12.606-4.1c-.109.337-.219.674-.329,1.01" transform="translate(14.924 10.24)" fill="#fff"/>
        <path id="Path_29555" data-name="Path 29555" d="M116.091,284.474l-2.021,8.1,1.014.254,2.022-8.111c-.338-.083-.678-.162-1.015-.248" transform="translate(6.058 15.108)" fill="#fff"/>
        <path id="Path_29556" data-name="Path 29556" d="M287.091,165.624l13.207,1.388.111-1.056-13.2-1.387c-.035.353-.078.7-.115,1.055" transform="translate(15.247 8.74)" fill="#fff"/>
        <path id="Path_29557" data-name="Path 29557" d="M285.735,175.154l8.23,1.451.181-1.03-8.24-1.452c-.059.343-.109.689-.172,1.031" transform="translate(15.175 9.247)" fill="#fff"/>
        <path id="Path_29558" data-name="Path 29558" d="M266.667,224.255l7.1,4.436.554-.886-7.1-4.437c-.183.3-.366.592-.553.887" transform="translate(14.162 11.863)" fill="#fff"/>
        <path id="Path_29559" data-name="Path 29559" d="M275.789,207.3l7.627,3.4.425-.955-7.633-3.4c-.14.319-.276.64-.419.958" transform="translate(14.646 10.958)" fill="#fff"/>
        <path id="Path_29560" data-name="Path 29560" d="M245.39,250.308l5.825,6.032.753-.727-5.829-6.036c-.25.243-.5.49-.749.731" transform="translate(13.032 13.254)" fill="#fff"/>
        <path id="Path_29561" data-name="Path 29561" d="M241.852,253.577l5.613,6.234.777-.7-5.609-6.229c-.258.234-.522.461-.781.694" transform="translate(12.844 13.43)" fill="#fff"/>
        <path id="Path_29562" data-name="Path 29562" d="M238.208,256.726l5.39,6.423.8-.672-5.392-6.426c-.265.225-.531.452-.8.675" transform="translate(12.651 13.598)" fill="#fff"/>
        <path id="Path_29563" data-name="Path 29563" d="M234.455,259.745l5.16,6.605.824-.643-5.158-6.6c-.274.215-.551.425-.826.639" transform="translate(12.451 13.76)" fill="#fff"/>
        <path id="Path_29564" data-name="Path 29564" d="M230.592,262.637l7.807,10.746.859-.624-7.809-10.748q-.426.314-.857.627" transform="translate(12.246 13.915)" fill="#fff"/>
        <path id="Path_29565" data-name="Path 29565" d="M248.806,246.911l6.035,5.829.727-.752-6.032-5.825c-.241.252-.488.5-.73.748" transform="translate(13.213 13.073)" fill="#fff"/>
        <path id="Path_29566" data-name="Path 29566" d="M258.333,236.054l6.6,5.158.643-.824-6.606-5.161c-.214.276-.424.553-.639.827" transform="translate(13.719 12.492)" fill="#fff"/>
        <path id="Path_29567" data-name="Path 29567" d="M264.027,228.285l6.942,4.682.583-.867-6.939-4.681q-.292.434-.587.866" transform="translate(14.022 12.078)" fill="#fff"/>
        <path id="Path_29568" data-name="Path 29568" d="M261.243,232.216l6.78,4.926.615-.846-6.779-4.925c-.2.282-.411.563-.616.845" transform="translate(13.874 12.288)" fill="#fff"/>
        <path id="Path_29569" data-name="Path 29569" d="M252.1,243.413l9.872,8.889.71-.789-9.878-8.894c-.236.263-.466.531-.7.793" transform="translate(13.389 12.885)" fill="#fff"/>
        <path id="Path_29570" data-name="Path 29570" d="M187.445,283.5l2.3,8.024,1.006-.289-2.3-8.028c-.335.1-.669.2-1,.293" transform="translate(9.955 15.041)" fill="#fff"/>
        <path id="Path_29571" data-name="Path 29571" d="M13.2,164.568,0,165.956l.111,1.056,13.208-1.389c-.038-.352-.081-.7-.116-1.055" transform="translate(0 8.74)" fill="#fff"/>
        <path id="Path_29572" data-name="Path 29572" d="M13.319,135.782.111,134.394,0,135.45l13.2,1.387c.035-.353.078-.7.116-1.055" transform="translate(0 7.137)" fill="#fff"/>
        <path id="Path_29573" data-name="Path 29573" d="M13.672,131,5.38,129.833l-.145,1.035,8.293,1.165c.046-.345.1-.69.144-1.035" transform="translate(0.278 6.895)" fill="#fff"/>
        <path id="Path_29574" data-name="Path 29574" d="M14.426,126.253,6.2,124.8l-.182,1.03,8.24,1.452c.059-.343.111-.689.172-1.031" transform="translate(0.319 6.628)" fill="#fff"/>
        <path id="Path_29575" data-name="Path 29575" d="M111.454,283.211l-2.3,8.029,1.007.288,2.3-8.024c-.336-.095-.67-.195-1-.293" transform="translate(5.797 15.041)" fill="#fff"/>
        <path id="Path_29576" data-name="Path 29576" d="M14.255,174.122l-8.24,1.453L6.2,176.6l8.229-1.451c-.061-.342-.113-.688-.172-1.031" transform="translate(0.319 9.247)" fill="#fff"/>
        <path id="Path_29577" data-name="Path 29577" d="M23.935,206.339l-7.632,3.4.424.955,7.627-3.4c-.143-.318-.278-.639-.419-.958" transform="translate(0.866 10.958)" fill="#fff"/>
        <path id="Path_29578" data-name="Path 29578" d="M22.069,201.9l-7.742,3.128.393.969,7.745-3.13c-.132-.322-.265-.643-.395-.967" transform="translate(0.761 10.722)" fill="#fff"/>
        <path id="Path_29579" data-name="Path 29579" d="M19.051,192.823l-12.606,4.1.328,1.01,12.607-4.1q-.166-.5-.329-1.01" transform="translate(0.342 10.24)" fill="#fff"/>
        <path id="Path_29580" data-name="Path 29580" d="M25.945,210.714l-7.506,3.662.458.939,7.513-3.664c-.155-.313-.313-.623-.465-.937" transform="translate(0.979 11.191)" fill="#fff"/>
        <path id="Path_29581" data-name="Path 29581" d="M19.379,107.707l-12.606-4.1-.329,1.01,12.606,4.1q.163-.505.329-1.01" transform="translate(0.342 5.503)" fill="#fff"/>
        <path id="Path_29582" data-name="Path 29582" d="M20.363,197.393l-7.846,2.856.358.983,7.84-2.854c-.12-.328-.235-.656-.353-.985" transform="translate(0.665 10.483)" fill="#fff"/>
        <path id="Path_29583" data-name="Path 29583" d="M33.456,77.3l-7.1-4.436-.554.886,7.1,4.437q.275-.444.553-.887" transform="translate(1.37 3.869)" fill="#fff"/>
        <path id="Path_29584" data-name="Path 29584" d="M38.867,69.358l-6.781-4.926-.614.846,6.78,4.925c.2-.283.41-.563.615-.845" transform="translate(1.671 3.422)" fill="#fff"/>
        <path id="Path_29585" data-name="Path 29585" d="M36.09,73.277,29.148,68.6l-.584.867,6.94,4.681q.291-.434.586-.866" transform="translate(1.517 3.643)" fill="#fff"/>
        <path id="Path_29586" data-name="Path 29586" d="M48.166,58.357l-9.872-8.888-.711.789,9.878,8.893c.236-.263.467-.532.7-.794" transform="translate(1.996 2.627)" fill="#fff"/>
        <path id="Path_29587" data-name="Path 29587" d="M41.77,65.53l-6.6-5.157-.643.824,6.605,5.16c.214-.276.424-.553.64-.827" transform="translate(1.834 3.206)" fill="#fff"/>
        <path id="Path_29588" data-name="Path 29588" d="M26.411,89.864,18.9,86.2l-.458.939L25.945,90.8c.153-.314.312-.623.465-.936" transform="translate(0.979 4.578)" fill="#fff"/>
        <path id="Path_29589" data-name="Path 29589" d="M22.464,98.624l-7.746-3.13-.392.969,7.742,3.128c.13-.323.263-.644.395-.967" transform="translate(0.761 5.071)" fill="#fff"/>
        <path id="Path_29590" data-name="Path 29590" d="M24.354,94.205l-7.627-3.4-.424.955,7.632,3.4c.141-.319.276-.64.419-.958" transform="translate(0.866 4.823)" fill="#fff"/>
        <path id="Path_29591" data-name="Path 29591" d="M31.179,81.519,19.688,74.884l-.531.919,11.485,6.63c.176-.306.359-.61.537-.915" transform="translate(1.017 3.977)" fill="#fff"/>
        <path id="Path_29592" data-name="Path 29592" d="M20.716,103.1l-7.841-2.854-.358.983,7.847,2.855c.118-.328.233-.656.353-.984" transform="translate(0.665 5.324)" fill="#fff"/>
        <path id="Path_29593" data-name="Path 29593" d="M13.527,169.36l-8.293,1.165.145,1.036,8.292-1.166c-.048-.344-.1-.69-.144-1.035" transform="translate(0.278 8.994)" fill="#fff"/>
        <path id="Path_29594" data-name="Path 29594" d="M68.725,262.011l-7.809,10.747.859.624,7.807-10.746q-.43-.311-.857-.626" transform="translate(3.235 13.915)" fill="#fff"/>
        <path id="Path_29595" data-name="Path 29595" d="M80.629,269.941l-4.183,7.244.906.522,4.179-7.238c-.3-.174-.6-.353-.9-.529" transform="translate(4.06 14.336)" fill="#fff"/>
        <path id="Path_29596" data-name="Path 29596" d="M72.505,264.8l-4.682,6.942.867.583,4.681-6.94q-.434-.291-.866-.585" transform="translate(3.602 14.063)" fill="#fff"/>
        <path id="Path_29597" data-name="Path 29597" d="M89.091,274.5l-3.664,7.513.939.458,3.662-7.506c-.315-.152-.624-.312-.937-.465" transform="translate(4.537 14.578)" fill="#fff"/>
        <path id="Path_29598" data-name="Path 29598" d="M76.523,267.44l-4.436,7.1.886.554,4.437-7.1q-.444-.275-.887-.553" transform="translate(3.828 14.203)" fill="#fff"/>
        <path id="Path_29599" data-name="Path 29599" d="M84.819,272.3l-3.925,7.381.924.491,3.926-7.384c-.308-.162-.617-.322-.925-.488" transform="translate(4.296 14.461)" fill="#fff"/>
        <path id="Path_29600" data-name="Path 29600" d="M102.326,280.206l-2.854,7.841.984.358,2.856-7.846c-.329-.118-.658-.233-.986-.354" transform="translate(5.283 14.881)" fill="#fff"/>
        <path id="Path_29601" data-name="Path 29601" d="M106.866,281.785l-2.581,7.944.993.323,2.581-7.944q-.5-.16-.993-.323" transform="translate(5.538 14.965)" fill="#fff"/>
        <path id="Path_29602" data-name="Path 29602" d="M97.851,278.456l-3.13,7.745.969.393,3.128-7.742c-.323-.129-.645-.263-.967-.395" transform="translate(5.03 14.788)" fill="#fff"/>
        <path id="Path_29603" data-name="Path 29603" d="M93.527,276.559l-5.39,12.105.971.432L94.5,276.984c-.324-.142-.651-.28-.973-.425" transform="translate(4.681 14.687)" fill="#fff"/>
        <path id="Path_29604" data-name="Path 29604" d="M47.461,242.619l-9.878,8.895.711.789,9.872-8.889c-.238-.262-.469-.531-.7-.794" transform="translate(1.996 12.885)" fill="#fff"/>
        <path id="Path_29605" data-name="Path 29605" d="M38.251,231.371,31.472,236.3l.614.845,6.781-4.926q-.31-.42-.616-.844" transform="translate(1.671 12.288)" fill="#fff"/>
        <path id="Path_29606" data-name="Path 29606" d="M41.13,235.227l-6.605,5.16.643.825,6.6-5.158c-.216-.274-.427-.552-.64-.827" transform="translate(1.834 12.492)" fill="#fff"/>
        <path id="Path_29607" data-name="Path 29607" d="M32.9,223.368,25.8,227.8l.555.887,7.1-4.436q-.28-.442-.554-.887" transform="translate(1.37 11.863)" fill="#fff"/>
        <path id="Path_29608" data-name="Path 29608" d="M64.757,259.105l-5.157,6.6.824.643,5.16-6.605c-.275-.214-.553-.424-.827-.64" transform="translate(3.165 13.76)" fill="#fff"/>
        <path id="Path_29609" data-name="Path 29609" d="M30.642,219.229l-11.484,6.63.531.919,11.49-6.633c-.178-.306-.361-.609-.537-.916" transform="translate(1.017 11.643)" fill="#fff"/>
        <path id="Path_29610" data-name="Path 29610" d="M35.5,227.419l-6.94,4.681.584.867,6.941-4.682q-.294-.431-.586-.866" transform="translate(1.517 12.078)" fill="#fff"/>
        <path id="Path_29611" data-name="Path 29611" d="M57.425,252.883l-5.609,6.229.777.7,5.613-6.235c-.259-.232-.523-.459-.781-.693" transform="translate(2.752 13.43)" fill="#fff"/>
        <path id="Path_29612" data-name="Path 29612" d="M61.043,256.052l-5.393,6.426.8.672,5.39-6.423c-.269-.223-.533-.451-.8-.675" transform="translate(2.955 13.598)" fill="#fff"/>
        <path id="Path_29613" data-name="Path 29613" d="M53.931,249.577,48.1,255.613l.752.726,5.825-6.032c-.252-.241-.5-.487-.748-.73" transform="translate(2.555 13.254)" fill="#fff"/>
        <path id="Path_29614" data-name="Path 29614" d="M50.543,246.163l-6.032,5.825.726.752,6.036-5.829c-.243-.25-.489-.5-.73-.748" transform="translate(2.364 13.073)" fill="#fff"/>
      </g>
    </g>
  </g>
</svg>
