<svg xmlns="http://www.w3.org/2000/svg" xmlns:xlink="http://www.w3.org/1999/xlink" width="118" height="118" viewBox="0 0 118 118">
  <defs>
    <linearGradient id="linear-gradient" x1="0.052" y1="0.294" x2="0.862" y2="0.723" gradientUnits="objectBoundingBox">
      <stop offset="0" stop-color="#ffd393"/>
      <stop offset="0.547" stop-color="#a57635"/>
      <stop offset="0.553" stop-color="#c19a65"/>
      <stop offset="1" stop-color="#834e06"/>
    </linearGradient>
    <filter id="Ellipse_31" x="0" y="0" width="118" height="118" filterUnits="userSpaceOnUse">
      <feOffset dy="3" input="SourceAlpha"/>
      <feGaussianBlur stdDeviation="7" result="blur"/>
      <feFlood flood-color="#fff" flood-opacity="0.231"/>
      <feComposite operator="in" in2="blur"/>
      <feComposite in="SourceGraphic"/>
    </filter>
    <linearGradient id="linear-gradient-2" x1="0.876" y1="0.188" x2="0.304" y2="1.026" gradientUnits="objectBoundingBox">
      <stop offset="0" stop-color="#d08a2b" stop-opacity="0"/>
      <stop offset="0.507" stop-color="#ffecd1"/>
      <stop offset="1" stop-color="#d08a2b" stop-opacity="0"/>
    </linearGradient>
    <filter id="Subtraction_18" x="0" y="0" width="118" height="118" filterUnits="userSpaceOnUse">
      <feOffset dy="3" input="SourceAlpha"/>
      <feGaussianBlur stdDeviation="7" result="blur-2"/>
      <feFlood flood-color="#fff" flood-opacity="0.231"/>
      <feComposite operator="in" in2="blur-2"/>
      <feComposite in="SourceGraphic"/>
    </filter>
  </defs>
  <g id="Selfie_shoot_btn" data-name="Selfie_shoot btn" transform="translate(21 18)">
    <g id="Group_4197" data-name="Group 4197" transform="translate(3225 -714)">
      <g transform="matrix(1, 0, 0, 1, -3246, 696)" filter="url(#Ellipse_31)">
        <circle id="Ellipse_31-2" data-name="Ellipse 31" cx="38" cy="38" r="38" transform="translate(21 18)" fill="url(#linear-gradient)"/>
      </g>
      <g transform="matrix(1, 0, 0, 1, -3246, 696)" filter="url(#Subtraction_18)">
        <path id="Subtraction_18-2" data-name="Subtraction 18" d="M38,76A38.01,38.01,0,0,1,23.209,2.986a38.007,38.007,0,0,1,44.938,58.15A37.581,37.581,0,0,1,55.179,71.921,38.027,38.027,0,0,1,38,76ZM38,2A36.009,36.009,0,0,0,23.987,71.171,36.009,36.009,0,0,0,52.013,4.829,35.775,35.775,0,0,0,38,2Z" transform="translate(21 18)" fill="url(#linear-gradient-2)"/>
      </g>
    </g>
    <g id="Group_312" data-name="Group 312" transform="translate(17.954 21.554)">
      <path id="Path_693" data-name="Path 693" d="M1564.91,824.586h-16.433c-.837,0-3.8,6.392-4.638,6.392h-3.827a3.51,3.51,0,0,0-3.511,3.511V853.8a3.51,3.51,0,0,0,3.511,3.511h33.357a3.51,3.51,0,0,0,3.511-3.511V834.489a3.51,3.51,0,0,0-3.511-3.511h-3.828S1565.747,824.586,1564.91,824.586Z" transform="translate(-1536.5 -824.586)" fill="none" stroke="#fff" stroke-linecap="square" stroke-miterlimit="10" stroke-width="2.5"/>
      <circle id="Ellipse_26" data-name="Ellipse 26" cx="7.91" cy="7.91" r="7.91" transform="translate(12.168 11.088)" fill="none" stroke="#fff" stroke-linecap="square" stroke-miterlimit="10" stroke-width="2.5"/>
    </g>
  </g>
</svg>
