<svg xmlns="http://www.w3.org/2000/svg" xmlns:xlink="http://www.w3.org/1999/xlink" width="186.582" height="252.831" viewBox="0 0 186.582 252.831">
  <defs>
    <radialGradient id="radial-gradient" cx="0.5" cy="0.5" r="0.523" gradientTransform="matrix(1, 0, 0, 1.06, 0, -0.03)" gradientUnits="objectBoundingBox">
      <stop offset="0" stop-color="#fff" stop-opacity="0"/>
      <stop offset="0.775" stop-color="#fff" stop-opacity="0"/>
      <stop offset="1" stop-color="#fff"/>
    </radialGradient>
    <radialGradient id="radial-gradient-2" cx="0.5" cy="1" r="0.837" gradientTransform="translate(0 0.313) scale(1 0.572)" gradientUnits="objectBoundingBox">
      <stop offset="0" stop-color="#fff" stop-opacity="0.698"/>
      <stop offset="1" stop-color="#fff" stop-opacity="0"/>
    </radialGradient>
    <radialGradient id="radial-gradient-3" cx="0.5" cy="0.781" r="0.837" gradientTransform="translate(0 0.313) scale(1 0.572)" gradientUnits="objectBoundingBox">
      <stop offset="0" stop-color="#fff" stop-opacity="0.796"/>
      <stop offset="1" stop-color="#fff" stop-opacity="0"/>
    </radialGradient>
    <radialGradient id="radial-gradient-4" cx="0.464" cy="1.418" r="0.876" gradientTransform="translate(0 -0.73) scale(1 1.515)" xlink:href="#radial-gradient-2"/>
  </defs>
  <g id="Selfie_face" transform="translate(-1123 -564)">
    <g id="Group_4300" data-name="Group 4300" transform="translate(470.699 582.394)">
      <g id="Path_29660" data-name="Path 29660">
        <path id="Path_30440" data-name="Path 30440" d="M745.419,234.188v-2c24.534,0,49.579-26.8,66.995-71.679l.172-.441.449-.147a17.991,17.991,0,0,0,12.052-13.658c5.775-28.835,7.056-32.579,9.38-39.377.411-1.2.853-2.5,1.361-4.046,1.065-3.249.927-5.585-.408-6.941-1.631-1.651-4.618-1.408-6.256-1.118l-1.265.226.092-1.281c.276-3.849.415-7.568.415-11.055,0-27.856-8.629-53.23-24.3-71.448-15.316-17.809-36.161-27.617-58.693-27.617s-43.375,9.8-58.694,27.609c-15.667,18.223-24.3,43.6-24.3,71.448,0,2.966.277,8.2.442,11.059l.073,1.265-1.247-.223c-1.642-.294-4.639-.538-6.278,1.125-1.337,1.359-1.474,3.695-.408,6.947.507,1.547.951,2.85,1.361,4.046,2.324,6.8,3.6,10.548,9.38,39.376A17.994,17.994,0,0,0,677.8,159.92l.449.147.172.441c17.416,44.884,42.462,71.68,67,71.68v2c-25.312,0-50.971-27.1-68.692-72.521a20,20,0,0,1-12.937-15.022c-5.748-28.693-7.014-32.4-9.31-39.116-.413-1.2-.859-2.513-1.37-4.07-1.317-4.02-1.02-7.039.883-8.973,1.821-1.851,4.525-2.1,6.813-1.866-.165-2.979-.377-7.328-.377-9.957,0-28.329,8.8-54.166,24.78-72.752,15.7-18.253,37.088-28.3,60.21-28.3S789.924-8.339,805.626,9.919c15.979,18.581,24.78,44.418,24.78,72.752,0,3.161-.113,6.508-.337,9.966,2.278-.225,4.962.022,6.776,1.858,1.9,1.933,2.2,4.95.884,8.969-.512,1.556-.957,2.863-1.37,4.07-2.3,6.716-3.561,10.416-9.31,39.116a19.99,19.99,0,0,1-12.939,15.017C796.389,207.088,770.729,234.188,745.419,234.188Z" fill="#fff"/>
      </g>
      <g id="Path_29668" data-name="Path 29668">
        <path id="Path_30441" data-name="Path 30441" d="M759.957,101.857a37.694,37.694,0,0,1,10.588-8.73,31.74,31.74,0,0,1,6.432-2.719,23.758,23.758,0,0,1,13.96,0,31.861,31.861,0,0,1,6.433,2.719,37.651,37.651,0,0,1,10.587,8.733,54.434,54.434,0,0,0-11.3-7.345,27.15,27.15,0,0,0-25.4,0A54.258,54.258,0,0,0,759.957,101.857Z" fill="#fff"/>
      </g>
      <g id="Path_29667" data-name="Path 29667">
        <path id="Path_30442" data-name="Path 30442" d="M759.957,147.266a19.663,19.663,0,0,1-6.235,4.708,16.741,16.741,0,0,1-15.531,0,19.588,19.588,0,0,1-6.234-4.71,39.158,39.158,0,0,0,6.841,3.273,19.714,19.714,0,0,0,14.319,0A38.911,38.911,0,0,0,759.957,147.266Z" fill="#fff"/>
      </g>
      <g id="Path_29669" data-name="Path 29669">
        <path id="Path_30443" data-name="Path 30443" d="M680.957,101.857a37.694,37.694,0,0,1,10.588-8.73,31.74,31.74,0,0,1,6.432-2.719,23.758,23.758,0,0,1,13.96,0,31.861,31.861,0,0,1,6.433,2.719,37.651,37.651,0,0,1,10.587,8.733,54.434,54.434,0,0,0-11.3-7.345,27.15,27.15,0,0,0-25.4,0A54.258,54.258,0,0,0,680.957,101.857Z" fill="#fff"/>
      </g>
    </g>
    <g id="Group_6498" data-name="Group 6498" transform="translate(5671 -412)">
      <g id="Group_4300-2" data-name="Group 4300" transform="translate(-4642 697)">
        <path id="Path_29660-2" data-name="Path 29660" d="M92.115,250.582c-24.983,0-50.351-27.021-67.929-72.318a18.978,18.978,0,0,1-12.718-14.416C5.706,135.087,4.433,131.363,2.122,124.6c-.411-1.2-.857-2.507-1.365-4.058-1.192-3.635-.975-6.314.645-7.96,1.923-1.955,5.177-1.765,7.167-1.409-.156-2.7-.444-8.088-.444-11.116,0-28.092,8.714-53.695,24.538-72.1C48.172,9.932,69.286,0,92.115,0s43.942,9.932,59.451,27.965c15.824,18.4,24.538,44,24.538,72.1,0,3.519-.14,7.254-.418,11.126,1.994-.355,5.229-.54,7.145,1.4,1.619,1.645,1.836,4.321.645,7.955-.509,1.551-.953,2.854-1.365,4.058-2.311,6.76-3.584,10.483-9.345,39.244a18.979,18.979,0,0,1-12.721,14.417c-17.578,45.3-42.945,72.317-67.928,72.317" transform="translate(95.345 280.249)" fill="url(#radial-gradient)"/>
        <path id="Path_29668-2" data-name="Path 29668" d="M24,0C37.255,0,48,11.5,48,11.5S37.255,23,24,23,0,11.5,0,11.5,10.745,0,24,0Z" transform="translate(250 411) rotate(180)" fill="url(#radial-gradient-2)"/>
        <path id="Path_29667-2" data-name="Path 29667" d="M14,0c7.732,0,14,5.619,14,5.619s-6.268,5.619-14,5.619S0,5.619,0,5.619,6.268,0,14,0Z" transform="translate(174 439.29)" fill="url(#radial-gradient-3)"/>
        <path id="Path_29669-2" data-name="Path 29669" d="M24,0C37.255,0,48,11.5,48,11.5S37.255,23,24,23,0,11.5,0,11.5,10.745,0,24,0Z" transform="translate(171 411) rotate(180)" fill="url(#radial-gradient-4)"/>
      </g>
      <path id="Path_30398" data-name="Path 30398" d="M92.115,250.582c-24.983,0-50.351-27.021-67.929-72.318a18.978,18.978,0,0,1-12.718-14.416C5.706,135.087,4.433,131.363,2.122,124.6c-.411-1.2-.857-2.507-1.365-4.058-1.192-3.635-.975-6.314.645-7.96,1.923-1.955,5.177-1.765,7.167-1.409-.156-2.7-.444-8.088-.444-11.116,0-28.092,8.714-53.695,24.538-72.1C48.172,9.932,69.286,0,92.115,0s43.942,9.932,59.451,27.965c15.824,18.4,24.538,44,24.538,72.1,0,3.519-.14,7.254-.418,11.126,1.994-.355,5.229-.54,7.145,1.4,1.619,1.645,1.836,4.321.645,7.955-.509,1.551-.953,2.854-1.365,4.058-2.311,6.76-3.584,10.483-9.345,39.244a18.979,18.979,0,0,1-12.721,14.417c-17.578,45.3-42.945,72.317-67.928,72.317" transform="translate(-4546.654 977.249)" fill="none" stroke="rgba(255,255,255,0.6)" stroke-miterlimit="10" stroke-width="2"/>
    </g>
  </g>
</svg>
