<svg xmlns="http://www.w3.org/2000/svg" xmlns:xlink="http://www.w3.org/1999/xlink" width="350.652" height="355.387" viewBox="0 0 350.652 355.387">
  <defs>
    <linearGradient id="linear-gradient" x1="0.5" x2="0.5" y2="1" gradientUnits="objectBoundingBox">
      <stop offset="0" stop-color="#834e06"/>
      <stop offset="0.478" stop-color="#f7cc92"/>
      <stop offset="1" stop-color="#834e06"/>
    </linearGradient>
  </defs>
  <path id="Subtraction_29" data-name="Subtraction 29" d="M3753.326,384.387a176.62,176.62,0,0,1-35.334-3.562,174.361,174.361,0,0,1-62.692-26.381,175.841,175.841,0,0,1-63.521-77.138,174.461,174.461,0,0,1-10.216-32.911A176.631,176.631,0,0,1,3578,209.06v-4.735a176.628,176.628,0,0,1,3.562-35.334,174.364,174.364,0,0,1,26.381-62.692,175.839,175.839,0,0,1,77.138-63.522,174.447,174.447,0,0,1,32.91-10.216,177.034,177.034,0,0,1,70.669,0,174.365,174.365,0,0,1,62.692,26.381,175.84,175.84,0,0,1,63.522,77.138,174.443,174.443,0,0,1,10.216,32.91,176.624,176.624,0,0,1,3.562,35.334v4.735a176.628,176.628,0,0,1-3.562,35.334,174.366,174.366,0,0,1-26.381,62.692,175.839,175.839,0,0,1-77.138,63.522,174.449,174.449,0,0,1-32.911,10.216A176.623,176.623,0,0,1,3753.326,384.387Zm.157-350.422a172.594,172.594,0,0,0-34.529,3.481,170.4,170.4,0,0,0-61.264,25.78,171.829,171.829,0,0,0-62.075,75.381,170.458,170.458,0,0,0-9.983,32.161,172.591,172.591,0,0,0-3.481,34.53v2.791a172.591,172.591,0,0,0,3.481,34.53,170.4,170.4,0,0,0,25.78,61.264,171.833,171.833,0,0,0,75.382,62.075,170.469,170.469,0,0,0,32.161,9.983,173,173,0,0,0,69.059,0,170.394,170.394,0,0,0,61.264-25.78,171.83,171.83,0,0,0,62.074-75.381,170.474,170.474,0,0,0,9.983-32.161,172.593,172.593,0,0,0,3.481-34.53V205.3a172.593,172.593,0,0,0-3.481-34.53,170.394,170.394,0,0,0-25.78-61.264,171.83,171.83,0,0,0-75.381-62.075,170.461,170.461,0,0,0-32.161-9.983A172.6,172.6,0,0,0,3753.482,33.965Z" transform="translate(-3578 -29)" fill="url(#linear-gradient)"/>
</svg>
