<svg xmlns="http://www.w3.org/2000/svg" xmlns:xlink="http://www.w3.org/1999/xlink" width="206.214" height="274.52" viewBox="0 0 206.214 274.52">
  <defs>
    <radialGradient id="radial-gradient" cx="0.5" cy="0.5" r="0.5" gradientUnits="objectBoundingBox">
      <stop offset="0" stop-color="#fff"/>
      <stop offset="1" stop-color="#fff" stop-opacity="0.412"/>
    </radialGradient>
    <filter id="Union_9" x="0" y="0" width="206.214" height="274.52" filterUnits="userSpaceOnUse">
      <feOffset input="SourceAlpha"/>
      <feGaussianBlur stdDeviation="3" result="blur"/>
      <feFlood flood-opacity="0.161"/>
      <feComposite operator="in" in2="blur"/>
      <feComposite in="SourceGraphic"/>
    </filter>
  </defs>
  <g transform="matrix(1, 0, 0, 1, 0, 0)" filter="url(#Union_9)">
    <path id="Union_9-2" data-name="Union 9" d="M3606.446-9.993h-.554l0,.024-.244-.024h-.185v-.018l-11.56-1.142-17.053-10.126-.06.056-.457-.363-.33-.2,0-.064L3560.981-33.77l-.052-.065L3538.477-61.9l-5.623-29.649-.294-1.9-3.724.124-7.515-14.31-.021-.077-8.72-31.853,3.71-13.033,6.233-2.078,2.569,2.135-.092-.973v-.028l0-.218-.217.07.208-.657,0-.212-1.654-1.693,1.636.561-.747-47.405.08-.161,16.793-33.585.135-.1,23.406-17.945,25.489-10.2,14.467-.289-.081-.065h.008l1.651.033,1.651-.033h.008l-.082.065,14.468.289.124.05,25.364,10.146.081.061,23.46,17.986.076.151,16.8,33.595,0,.179-.745,47.226,1.636-.561-1.654,1.694,0,.21.208.658-.217-.07,0,.246,0,.03-.089.943,2.569-2.135,6.233,2.078,3.71,13.033-8.741,31.93-7.515,14.31-3.724-.124-.3,1.927L3673.861-61.9l-.114.143-22.39,27.987-.065.051-14.956,11.873,0,.064-.331.2-.457.363-.06-.056-17.053,10.126-11.51,1.137v.023h-.235l-.244.024Zm-.986-1.493V-38.119l-10.739.467-.208,25.084Zm1.467-.005,10.9-1.077-.209-25.084-10.688-.465Zm12.357-1.873,15.091-8.96-15.284-14.324Zm-26.233,0,.194-23.284-15.284,14.324Zm-31.03-21.452,14.04,11.145,1.024-31.247-27.268-15.657-9.644,8.45Zm73.229-20.1,1.024,31.247,14.039-11.145,21.849-27.31-9.644-8.45Zm-.452,30.981-.979-29.832-11.793,10.25-2.765,5.021Zm-57.26,0L3593.076-38.5l-2.766-5.022L3578.517-53.77Zm16.877-15.169,11.044-.481v-3.1l-13.3-.519Zm23.5,0,2.258-4.1-13.251.517v3.1Zm-26.744-5.606,14.284.558V-52.5l-17.32,1.014-7.256-2.172Zm15.751.556,14.234-.556,10.291-8.943-7.256,2.172-17.27-1.011Zm17.1-8.807,8.652-2.59-9.925-5.8-15.823-.037v7.429Zm-35.71,0,17.147-1v-7.426l-15.874.037-9.924,5.8Zm46.549-3.423,26.069-14.969-38.642-15.528Zm-57.388,0,12.573-30.5-38.642,15.528Zm1.866-.679,9.847-5.757,16.272-.039V-76.138L3591.849-87.4Zm43.809-5.757L3633-57.067,3620.489-87.4,3606.927-76.18v13.318Zm49.543-.79,5.343-28.173,3.791-24.514,1-8.864L3669.35-104.66l.027.52-.157,0L3663.4-71.752ZM3534.3-91.787l5.343,28.173,9.289-8.139-5.816-32.386-.158,0,.028-.52-13.473-20.506.995,8.858Zm15.99,19.3,39.443-15.85-25.779-15.222-.252.4-.4-.661-18.689-.287Zm111.753,0,5.679-31.624-18.69.287-.4.661-.252-.4L3622.6-88.34Zm-54.893-5.781,11.4-9.434h-11.4Zm-1.969,0V-87.7h-11.4Zm1.969-10.9h12.42l-12.42-37.429Zm-14.388,0h12.42V-126.6Zm29.023-.391,25.805-15.237-14.746-23.172-8.005-.934Zm-31.238,0-3.055-39.343-8.005.934L3564.744-104.8Zm1.344-1.642,13.191-39.753-16.131,1.882Zm28.551,0,2.939-37.871-16.13-1.882Zm60.454-3.678,1.732.058,7.014-13.354,8.59-31.38-3-10.535-3.956,4.989,2.508,7.515-11.713,32.25ZM3514.1-139.56l8.591,31.38,7.013,13.354,1.733-.058-1.175-10.458-11.713-32.25,2.507-7.515-3.956-4.988Zm135.833,34.252,17.9-.276-1.413-26.8Zm-105.43-.276,17.895.276-16.482-27.079Zm104.1-.358,16.731-27.487-20.6,7.189-9.98-1.462Zm-84.873,0,13.847-21.76-9.981,1.462-20.6-7.19Zm105.487-1.191,13.566-20.647-14.965-5.913Zm-139.667-20.647,13.566,20.647,1.4-26.56Zm-9.447-9.83,9.461,26.049-.513-4.57-1.328-8.586-.35-3.705-.04-.06.032-.013-.929-9.827-4.291-5.41Zm162.666,26.046,9.46-26.046-2.042-6.122-4.291,5.411-.93,9.826.034.013-.041.062-.354,3.745-1.324,8.561Zm-38.177-16.178,20.681-7.219-12.8-7.4L3636.933-144l-.084.1-.355.614-.076-.1-10.99,13.073,7.958.929h0l.32.037.007.011Zm-84.735-14.622-12.8,7.4,20.681,7.219,10.878-1.595.007-.01.315-.037h.009l7.958-.929-10.99-13.073-.075.1-.354-.611-.088-.1Zm-32.871-8.6.03.3,2.064,21.5,14.934-5.9-17.489-17.909.167,1.767Zm156.269,21.8,2.093-21.8.295-.245.167-1.767-17.489,17.909Zm-94.6-1.346,16.262-1.9-17.667-26.018-10.425,13.844Zm18.766-1.9,16.261,1.9,11.83-14.072-10.425-13.843Zm-1.96-1.811V-176l-17.223,16.408Zm1.467-.074,17.172-25.291-17.172-16.36Zm-61.491-1.416,12.388-7.166-29.135-9.984Zm121.464,0,16.746-17.15-29.134,9.984ZM3686.152-141l8.373-10.559-4.4-1.467-3.075,2.556Zm-159.966,0-.9-9.468-3.075-2.557-4.4,1.468Zm126.525-2.812,31.753-10.882-34.818-11.314-11.932,20.617ZM3527.874-154.7l31.754,10.882,15-1.579-11.932-20.617Zm108.459,8.758,11.416-19.725-21.471,6.374Zm-60.328,0,10.054-13.352-21.471-6.374ZM3685.3-155.968l-13.267-42.056-21.556,30.74Zm-158.262,0,34.822-11.317-21.557-30.74Zm-1.344-46.8.693,43.984,12.856-40.758-.438-.625.794-.157,15.678-25-13.542-9.524Zm160.257,43.981.693-43.981L3670.6-234.845l-13.541,9.524,15.677,25,.794.157-.438.625Zm-78.9-19.082,18.207,17.346,23.6-7.006,22.186-31.637-44.86-8.888Zm-19.965,17.346,18.208-17.346-19.132-30.185-44.86,8.888,22.186,31.637Zm18.378-19.817v-71.7l-18.126,43.1Zm1.467-.081L3625-208.935l-18.076-42.979Zm63.834-20.3-14.945-23.833-27.871,15.35Zm-129.187,0,42.817-8.483-27.871-15.35Zm84.614-9.19,28.561-15.73-47.822-37.894v7.825Zm-40.04,0,19.311-45.918v-7.746l-47.873,37.934Zm69.947-16.534,13.722-9.652L3646.97-253.6l-25.052-10.021-13.086-.262Zm-65.677-37.191L3565.367-253.6l-22.849,17.517,13.724,9.652,47.263-37.453Z" transform="translate(-3503.06 274.94)" stroke="rgba(0,0,0,0)" stroke-miterlimit="10" stroke-width="1" fill="url(#radial-gradient)"/>
  </g>
</svg>
